<svg width="1003" height="254" viewBox="0 0 1003 254" fill="none" xmlns="http://www.w3.org/2000/svg">
<mask id="mask0_0_1" style="mask-type:luminance" maskUnits="userSpaceOnUse" x="0" y="50" width="163" height="204">
<path d="M0.333313 50.6823H163V253.333H0.333313V50.6823Z" fill="white"/>
</mask>
<g mask="url(#mask0_0_1)">
<mask id="mask1_0_1" style="mask-type:luminance" maskUnits="userSpaceOnUse" x="1" y="51" width="162" height="202">
<path d="M162.859 167.151L93.2813 236.521C72.2292 257.333 38.3229 257.333 17.2709 236.521C-3.61456 215.599 -3.61456 181.693 17.2656 160.813L126.901 51.0052" fill="white"/>
</mask>
<g mask="url(#mask1_0_1)">
<path d="M-6.25519 -35.2917H441.042V260.089H-6.25519V-35.2917Z" fill="#FF9D00"/>
</g>
</g>
<mask id="mask2_0_1" style="mask-type:luminance" maskUnits="userSpaceOnUse" x="148" y="0" width="258" height="203">
<path d="M148.823 0H405.667V202.594H148.823V0Z" fill="white"/>
</mask>
<g mask="url(#mask2_0_1)">
<mask id="mask3_0_1" style="mask-type:luminance" maskUnits="userSpaceOnUse" x="148" y="1" width="257" height="202">
<path d="M148.974 181.198L149.917 180.01L220.849 109.328C222.318 107.807 223.714 106.26 224.979 104.609L312.333 17.625C362.708 -32.6562 438.312 42.6094 388.187 93.1823L278.755 202.339" fill="white"/>
</mask>
<g mask="url(#mask3_0_1)">
<path d="M-6.25519 -35.2917H441.042V260.089H-6.25519V-35.2917Z" fill="#48CAED"/>
</g>
</g>
<mask id="mask4_0_1" style="mask-type:luminance" maskUnits="userSpaceOnUse" x="95" y="14" width="189" height="189">
<path d="M95 14.6667H283.328V202.068H95V14.6667Z" fill="white"/>
</mask>
<g mask="url(#mask4_0_1)">
<mask id="mask5_0_1" style="mask-type:luminance" maskUnits="userSpaceOnUse" x="96" y="14" width="188" height="188">
<path d="M205.703 14.6771C161.339 14.6771 121.38 41.3802 104.417 82.3333C87.4635 123.297 96.8489 170.432 128.214 201.802L283.177 46.7917C262.656 26.1875 234.771 14.6354 205.698 14.6771" fill="white"/>
</mask>
<g mask="url(#mask5_0_1)">
<path d="M-6.25519 -35.2917H441.042V260.089H-6.25519V-35.2917Z" fill="#F55D76"/>
</g>
</g>
<mask id="mask6_0_1" style="mask-type:luminance" maskUnits="userSpaceOnUse" x="127" y="46" width="188" height="188">
<path d="M127.724 46.6667H315V233.333H127.724V46.6667Z" fill="white"/>
</mask>
<g mask="url(#mask6_0_1)">
<mask id="mask7_0_1" style="mask-type:luminance" maskUnits="userSpaceOnUse" x="128" y="46" width="187" height="188">
<path d="M283.177 46.7917L128.208 201.755C171.089 244.021 240.016 243.734 282.599 201.182C325.156 158.594 325.437 89.6771 283.177 46.7917Z" fill="white"/>
</mask>
<g mask="url(#mask7_0_1)">
<path d="M-6.25519 -35.2917H441.042V260.089H-6.25519V-35.2917Z" fill="#2A8BEA"/>
</g>
</g>
<mask id="mask8_0_1" style="mask-type:luminance" maskUnits="userSpaceOnUse" x="462" y="61" width="135" height="144">
<path d="M462 61.0833H596.505V204.552H462V61.0833Z" fill="white"/>
</mask>
<g mask="url(#mask8_0_1)">
<mask id="mask9_0_1" style="mask-type:luminance" maskUnits="userSpaceOnUse" x="462" y="61" width="135" height="144">
<path d="M528.734 61.0833C515.969 61.0833 505.313 62.2552 496.771 64.6041C488.224 66.9739 481.453 70.1562 476.411 74.1823C471.359 78.2187 467.802 82.8802 465.729 88.2135C463.635 93.5208 462.594 99.0677 462.594 104.839V107.464C462.594 114.036 463.734 119.615 466.01 124.193C468.312 128.755 471.307 132.568 475 135.599C478.693 138.625 482.875 140.974 487.594 142.646C492.286 144.333 497.052 145.609 501.891 146.474C506.74 147.339 511.438 147.917 516.016 148.177C520.594 148.469 524.563 148.667 527.911 148.792C533.698 148.927 538.651 149.161 542.74 149.484C546.839 149.828 550.125 150.401 552.609 151.203C555.094 152.016 556.911 153.125 558.073 154.542C559.214 155.974 559.776 157.88 559.776 160.292C559.776 161.5 559.5 162.792 558.958 164.224C558.432 165.635 557.12 166.911 555.026 168.036C552.964 169.198 549.87 170.151 545.75 170.88C541.651 171.615 535.979 171.974 528.734 171.974C518.385 171.974 507.385 171.24 495.766 169.776C484.125 168.297 472.875 166.339 462 163.922V197.771C471.667 199.812 481.521 201.385 491.547 202.516C501.536 203.677 511.849 204.26 522.49 204.26H529.734C542.641 204.26 553.323 203.083 561.802 200.719C570.276 198.37 577.052 195.193 582.151 191.156C587.255 187.104 590.854 182.458 592.943 177.234C595.005 172.016 596.063 166.536 596.078 160.818V157.953C596.063 151.411 594.885 145.828 592.552 141.25C590.182 136.604 587.125 132.776 583.365 129.745C579.604 126.708 575.333 124.328 570.547 122.594C565.781 120.839 560.948 119.526 556.047 118.63C551.146 117.766 546.469 117.234 542.021 117.031C537.599 116.839 533.786 116.672 530.552 116.542C524.906 116.422 520.052 116.182 516.016 115.828C511.979 115.505 508.698 114.943 506.141 114.125C503.589 113.328 501.75 112.182 500.594 110.708C499.453 109.224 498.891 107.266 498.891 104.849C498.891 103.625 499.161 102.38 499.708 101.125C500.234 99.8489 501.526 98.6406 503.62 97.5052C505.698 96.3437 508.828 95.3906 513 94.6666C517.172 93.9166 522.875 93.5573 530.12 93.5573C540.078 93.5573 549.865 94.2239 559.479 95.5781C569.078 96.9219 578.781 98.75 588.589 101.026V67.7552C580.26 65.5937 571.74 63.9427 563.005 62.7812C554.281 61.6458 545.26 61.0833 535.984 61.0833H528.734Z" fill="white"/>
</mask>
<g mask="url(#mask9_0_1)">
<path d="M462 61.0833H595.974V204.026H462V61.0833Z" fill="#FF9D00"/>
</g>
</g>
<mask id="mask10_0_1" style="mask-type:luminance" maskUnits="userSpaceOnUse" x="620" y="95" width="120" height="110">
<path d="M620.266 95.3646H739.474V204.547H620.266V95.3646Z" fill="white"/>
</mask>
<g mask="url(#mask10_0_1)">
<mask id="mask11_0_1" style="mask-type:luminance" maskUnits="userSpaceOnUse" x="620" y="95" width="120" height="110">
<path d="M683.786 120.562C689.161 120.562 693.401 120.849 696.464 121.469C699.563 122.078 701.875 122.859 703.422 123.797C704.969 124.734 705.927 125.755 706.266 126.896C706.589 128.047 706.755 129.089 706.755 130.026C706.755 130.969 706.552 131.87 706.161 132.75C705.755 133.615 704.745 134.417 703.13 135.167C701.516 135.896 699.031 136.51 695.677 136.984C692.307 137.464 687.661 137.719 681.76 137.719C675.854 137.719 670.646 137.464 666.135 136.984C661.625 136.505 657.422 135.745 653.521 134.667C654.068 132.391 654.938 130.365 656.146 128.625C657.37 126.875 659.125 125.391 661.401 124.182C663.682 122.974 666.646 122.068 670.255 121.464C673.901 120.844 678.411 120.557 683.792 120.557L683.786 120.562ZM677.943 95.3646C666.641 95.3646 657.302 96.6719 649.896 99.2916C642.51 101.896 636.609 105.484 632.161 110.068C627.734 114.641 624.641 119.99 622.865 126.115C621.13 132.24 620.266 138.771 620.266 145.755V153.828C620.266 160.823 621.13 167.375 622.865 173.495C624.635 179.594 627.734 184.932 632.161 189.51C636.609 194.089 642.51 197.682 649.896 200.286C657.25 202.906 666.526 204.234 677.729 204.255H681.995C685.703 204.25 689.646 204.125 693.859 203.917C698.161 203.729 702.51 203.406 706.865 202.943C711.234 202.469 715.474 201.927 719.573 201.312C723.661 200.698 727.453 199.979 730.943 199.182V168.948C727.453 170.021 723.661 170.922 719.573 171.656C715.474 172.406 711.302 173.016 707.052 173.495C702.833 173.958 698.724 174.333 694.76 174.604C690.797 174.875 687.208 174.995 683.99 174.995C677.25 174.995 671.87 174.568 667.839 173.682C663.802 172.818 660.693 171.573 658.458 169.974C656.266 168.354 654.766 166.359 653.948 164.01C653.146 161.667 652.672 159.078 652.521 156.24C657.099 157.604 661.932 158.536 667.057 159.078C672.161 159.609 677.729 159.859 683.792 159.859C696.432 159.859 706.406 159.062 713.729 157.448C721.052 155.828 726.594 153.63 730.354 150.802C734.13 147.984 736.516 144.75 737.521 141.104C738.5 137.599 738.99 133.891 739.016 129.979V127.302C738.984 122.974 738.234 118.922 736.792 115.135C735.344 111.24 732.583 107.802 728.536 104.833C724.5 101.875 718.854 99.5625 711.599 97.8802C704.339 96.1979 695 95.3646 683.594 95.3646H677.943Z" fill="white"/>
</mask>
<g mask="url(#mask11_0_1)">
<path d="M620.266 95.3646H738.948V204.021H620.266V95.3646Z" fill="#F55D76"/>
</g>
</g>
<mask id="mask12_0_1" style="mask-type:luminance" maskUnits="userSpaceOnUse" x="766" y="49" width="33" height="152">
<path d="M766.224 49H798.599V200.385H766.224V49Z" fill="white"/>
</mask>
<g mask="url(#mask12_0_1)">
<mask id="mask13_0_1" style="mask-type:luminance" maskUnits="userSpaceOnUse" x="766" y="49" width="33" height="152">
<path d="M766.224 49V200.198H798.474V63.1094L774.307 49H766.224Z" fill="white"/>
</mask>
<g mask="url(#mask13_0_1)">
<path d="M766.224 49H798.401V200.385H766.224V49Z" fill="#2A8BEA"/>
</g>
</g>
<mask id="mask14_0_1" style="mask-type:luminance" maskUnits="userSpaceOnUse" x="826" y="49" width="34" height="152">
<path d="M826.708 49H859.411V200.385H826.708V49Z" fill="white"/>
</mask>
<g mask="url(#mask14_0_1)">
<mask id="mask15_0_1" style="mask-type:luminance" maskUnits="userSpaceOnUse" x="826" y="49" width="33" height="152">
<path d="M826.708 49V200.198H858.963V63.1094L834.797 49H826.708Z" fill="white"/>
</mask>
<g mask="url(#mask15_0_1)">
<path d="M826.708 49H858.885V200.385H826.708V49Z" fill="#2A8BEA"/>
</g>
</g>
<mask id="mask16_0_1" style="mask-type:luminance" maskUnits="userSpaceOnUse" x="885" y="99" width="118" height="106">
<path d="M885.208 99.375H1002.3V204.344H885.208V99.375Z" fill="white"/>
</mask>
<g mask="url(#mask16_0_1)">
<mask id="mask17_0_1" style="mask-type:luminance" maskUnits="userSpaceOnUse" x="885" y="99" width="118" height="106">
<path d="M885.208 99.375V153.823C885.208 160.818 886.047 167.37 887.724 173.495C889.391 179.594 892.354 184.932 896.578 189.51C900.828 194.089 906.552 197.677 913.729 200.286C920.885 202.906 929.833 204.229 940.62 204.25H946.687C957.484 204.234 966.422 202.906 973.505 200.286C980.62 197.677 986.302 194.089 990.521 189.51C994.776 184.932 997.771 179.589 999.505 173.495C1001.25 167.411 1002.11 160.911 1002.12 153.969V99.375H969.88V149.807C969.88 153.026 969.745 156.188 969.49 159.286C969.198 162.37 968.25 165.078 966.646 167.354C965.026 169.62 962.443 171.453 958.901 172.875C955.328 174.302 950.255 175 943.667 175C937.078 175 932.01 174.302 928.432 172.875C924.891 171.458 922.286 169.625 920.656 167.354C919.057 165.078 918.12 162.37 917.844 159.286C917.594 156.193 917.453 153.026 917.453 149.807V99.375H885.208Z" fill="white"/>
</mask>
<g mask="url(#mask17_0_1)">
<path d="M885.208 99.375H1002.3V204.344H885.208V99.375Z" fill="#48CAED"/>
</g>
</g>
</svg>
